<?xml version="1.0" encoding="UTF-8" standalone="no"?>
<!DOCTYPE svg PUBLIC "-//W3C//DTD SVG 1.1//EN" "http://www.w3.org/Graphics/SVG/1.1/DTD/svg11.dtd">
<svg width="100%" height="100%" viewBox="0 0 27 27" version="1.1" xmlns="http://www.w3.org/2000/svg" xmlns:xlink="http://www.w3.org/1999/xlink" xml:space="preserve" xmlns:serif="http://www.serif.com/" style="fill-rule:evenodd;clip-rule:evenodd;stroke-linejoin:round;stroke-miterlimit:2;">
    <g transform="matrix(1,0,0,1,-408,-580.55)">
        <path d="M408,580.55L435.6,580.55L435.6,608.39L408,608.39L408,580.55ZM413.083,604.479C413.083,603.616 412.384,602.916 411.521,602.916C410.658,602.916 409.958,603.616 409.958,604.479C409.958,605.342 410.658,606.041 411.521,606.041C412.384,606.041 413.083,605.342 413.083,604.479ZM433.584,604.479C433.584,603.616 432.884,602.916 432.021,602.916C431.158,602.916 430.459,603.616 430.459,604.479C430.459,605.342 431.158,606.041 432.021,606.041C432.884,606.041 433.584,605.342 433.584,604.479ZM420.815,604.479C420.815,603.616 420.116,602.916 419.253,602.916C418.39,602.916 417.69,603.616 417.69,604.479C417.69,605.342 418.39,606.041 419.253,606.041C420.116,606.041 420.815,605.342 420.815,604.479ZM425.876,604.479C425.876,603.616 425.176,602.916 424.313,602.916C423.45,602.916 422.751,603.616 422.751,604.479C422.751,605.342 423.45,606.041 424.313,606.041C425.176,606.041 425.876,605.342 425.876,604.479ZM429.834,604.479C429.834,603.616 429.134,602.916 428.271,602.916C427.408,602.916 426.709,603.616 426.709,604.479C426.709,605.342 427.408,606.041 428.271,606.041C429.134,606.041 429.834,605.342 429.834,604.479ZM425.876,600.671C425.876,599.808 425.176,599.109 424.313,599.109C423.45,599.109 422.751,599.808 422.751,600.671C422.751,601.533 423.45,602.234 424.313,602.234C425.176,602.234 425.876,601.533 425.876,600.671ZM413.083,600.671C413.083,599.808 412.384,599.109 411.521,599.109C410.658,599.109 409.958,599.808 409.958,600.671C409.958,601.533 410.658,602.234 411.521,602.234C412.384,602.234 413.083,601.533 413.083,600.671ZM416.875,600.671C416.875,599.808 416.176,599.109 415.313,599.109C414.45,599.109 413.75,599.808 413.75,600.671C413.75,601.533 414.45,602.234 415.313,602.234C416.176,602.234 416.875,601.533 416.875,600.671ZM433.584,600.671C433.584,599.808 432.884,599.109 432.021,599.109C431.158,599.109 430.459,599.808 430.459,600.671C430.459,601.533 431.158,602.234 432.021,602.234C432.884,602.234 433.584,601.533 433.584,600.671ZM429.834,600.671C429.834,599.808 429.134,599.109 428.271,599.109C427.408,599.109 426.709,599.808 426.709,600.671C426.709,601.533 427.408,602.234 428.271,602.234C429.134,602.234 429.834,601.533 429.834,600.671ZM413.083,596.895C413.083,596.032 412.384,595.332 411.521,595.332C410.658,595.332 409.958,596.032 409.958,596.895C409.958,597.758 410.658,598.457 411.521,598.457C412.384,598.457 413.083,597.758 413.083,596.895ZM420.815,596.895C420.815,596.032 420.116,595.332 419.253,595.332C418.39,595.332 417.69,596.032 417.69,596.895C417.69,597.758 418.39,598.457 419.253,598.457C420.116,598.457 420.815,597.758 420.815,596.895ZM425.876,596.895C425.876,596.032 425.176,595.332 424.313,595.332C423.45,595.332 422.751,596.032 422.751,596.895C422.751,597.758 423.45,598.457 424.313,598.457C425.176,598.457 425.876,597.758 425.876,596.895ZM413.083,592.187C413.083,591.324 412.384,590.624 411.521,590.624C410.658,590.624 409.958,591.324 409.958,592.187C409.958,593.05 410.658,593.749 411.521,593.749C412.384,593.749 413.083,593.05 413.083,592.187ZM433.584,592.187C433.584,591.324 432.884,590.624 432.021,590.624C431.158,590.624 430.459,591.324 430.459,592.187C430.459,593.05 431.158,593.749 432.021,593.749C432.884,593.749 433.584,593.05 433.584,592.187ZM420.815,592.187C420.815,591.324 420.116,590.624 419.253,590.624C418.39,590.624 417.69,591.324 417.69,592.187C417.69,593.05 418.39,593.749 419.253,593.749C420.116,593.749 420.815,593.05 420.815,592.187ZM425.876,592.187C425.876,591.324 425.176,590.624 424.313,590.624C423.45,590.624 422.751,591.324 422.751,592.187C422.751,593.05 423.45,593.749 424.313,593.749C425.176,593.749 425.876,593.05 425.876,592.187ZM429.834,592.187C429.834,591.324 429.134,590.624 428.271,590.624C427.408,590.624 426.709,591.324 426.709,592.187C426.709,593.05 427.408,593.749 428.271,593.749C429.134,593.749 429.834,593.05 429.834,592.187ZM433.584,588.312C433.584,587.449 432.884,586.75 432.021,586.75C431.158,586.75 430.459,587.449 430.459,588.312C430.459,589.175 431.158,589.875 432.021,589.875C432.884,589.875 433.584,589.175 433.584,588.312ZM420.815,588.312C420.815,587.449 420.116,586.75 419.253,586.75C418.39,586.75 417.69,587.449 417.69,588.312C417.69,589.175 418.39,589.875 419.253,589.875C420.116,589.875 420.815,589.175 420.815,588.312ZM429.834,588.312C429.834,587.449 429.134,586.75 428.271,586.75C427.408,586.75 426.709,587.449 426.709,588.312C426.709,589.175 427.408,589.875 428.271,589.875C429.134,589.875 429.834,589.175 429.834,588.312ZM413.083,588.312C413.083,587.449 412.384,586.75 411.521,586.75C410.658,586.75 409.958,587.449 409.958,588.312C409.958,589.175 410.658,589.875 411.521,589.875C412.384,589.875 413.083,589.175 413.083,588.312ZM416.875,588.312C416.875,587.449 416.176,586.75 415.313,586.75C414.45,586.75 413.75,587.449 413.75,588.312C413.75,589.175 414.45,589.875 415.313,589.875C416.176,589.875 416.875,589.175 416.875,588.312ZM425.876,588.312C425.876,587.449 425.176,586.75 424.313,586.75C423.45,586.75 422.751,587.449 422.751,588.312C422.751,589.175 423.45,589.875 424.313,589.875C425.176,589.875 425.876,589.175 425.876,588.312ZM433.584,584.52C433.584,583.657 432.884,582.958 432.021,582.958C431.158,582.958 430.459,583.657 430.459,584.52C430.459,585.383 431.158,586.083 432.021,586.083C432.884,586.083 433.584,585.383 433.584,584.52ZM413.083,584.52C413.083,583.657 412.384,582.958 411.521,582.958C410.658,582.958 409.958,583.657 409.958,584.52C409.958,585.383 410.658,586.083 411.521,586.083C412.384,586.083 413.083,585.383 413.083,584.52Z"/>
    </g>
    <g id="ArtBoard1" transform="matrix(0.942446,0,0,0.77109,-389.937,-446.323)">
        <rect x="413.75" y="578.821" width="29.201" height="36.105" style="fill:none;"/>
    </g>
</svg>
